<svg id="Layer_2" data-name="Layer 2" xmlns="http://www.w3.org/2000/svg" xmlns:xlink="http://www.w3.org/1999/xlink" viewBox="0 0 400 300" width="406" height="306" class="illustration styles_illustrationTablet__1DWOa"><defs><linearGradient id="linear-gradient" x1="126.76" y1="249.13" x2="186.77" y2="192.67" gradientUnits="userSpaceOnUse"><stop offset="0" stop-opacity="0"></stop><stop offset="0.99" stop-color="#552800"></stop></linearGradient><linearGradient id="linear-gradient-2" x1="286.18" y1="216.68" x2="307.41" y2="192.05" gradientUnits="userSpaceOnUse"><stop offset="0" stop-color="#297600"></stop><stop offset="0.99" stop-color="#294900"></stop></linearGradient><linearGradient id="linear-gradient-3" x1="44.31" y1="200.07" x2="57.33" y2="184.96" xlink:href="#linear-gradient-2"></linearGradient></defs><title>PP</title><path d="M21.33,166.12,177.55,77.21a25.05,25.05,0,0,1,25,.13l161,93.75a13.92,13.92,0,0,1-.07,24.11L213.23,281.47a33.57,33.57,0,0,1-33.46,0L21.28,190.29A13.92,13.92,0,0,1,21.33,166.12Z" fill="#297600"></path><path d="M144.53,256.63l8.35-5.65,60.5-50-14.32-6.15c-8.59,2.3-24,9-32,12.65-11.81,5.44-23.77,10.37-35.87,15.13q-10.05,4-20.13,7.88C123.1,238.06,133.9,247.23,144.53,256.63Z" opacity="0.32" fill="url(#linear-gradient)"></path><polyline points="205.67 207.67 193.58 202.33 193.58 110 209.46 104.33" fill="#7f1d18"></polyline><polyline points="213.24 92.33 213.24 201 205.67 207.67 205.67 103" fill="#aa3529"></polyline><path d="M141.49,114.93V74.72s-1.06-7.14,11.64-13.49,54.76-30.95,54.76-30.95,20.63-3.7,31.74,26.45a59.73,59.73,0,0,1,3.7,15.8v31.55l-61.11,33.86Z" fill="#68e1fd"></path><path d="M143.85,112V74.19s1.32-10.58,12.17-6.88,22.22,18.25,24.6,31.74v34.12l-35.45-20.63" fill="#e98669"></path><path d="M143.28,115.61l-23.81,28.83s-10.85,16.67,6.88,26.19,34.39-10.32,34.39-10.32L181.11,137Z" fill="#68e1fd"></path><path d="M141.2,114.93l-23.81,28.83s-10.85,16.67,6.88,26.19,34.39-10.32,34.39-10.32L179,136.36Z" fill="#aa3529"></path><path d="M177.42,89.2c-4.86-8.93-13.95-19.49-21.4-22C145.17,63.46,143.85,74,143.85,74v38C161.1,100.15,159.06,102.18,177.42,89.2Z" fill="#cd725f"></path><ellipse cx="216.53" cy="96.2" rx="17" ry="13.57" transform="translate(34.47 247.83) rotate(-63.74)" fill="#ffd7cb"></ellipse><path d="M221.81,86.9A5.76,5.76,0,0,1,224,91.78a10.43,10.43,0,0,1-1.16,5.06,6.16,6.16,0,0,1-3,3.13,1.36,1.36,0,0,1-1.82-.38,4,4,0,0,1-1.92,2,1.85,1.85,0,0,1-2.21-.43A4.51,4.51,0,0,1,213,98a8.05,8.05,0,0,1,.93-4.06,5.08,5.08,0,0,1,2.42-2.43,1.78,1.78,0,0,1,1.68.08l.12-.63,2-.82-.44,6.08c0,.41,0,.77,0,1.07s.15.49.43.37a3.33,3.33,0,0,0,1.43-1.79,7.33,7.33,0,0,0,.63-3.26,4.27,4.27,0,0,0-1.64-3.68,3.81,3.81,0,0,0-3.8-.15,8.44,8.44,0,0,0-4,3.78,11,11,0,0,0-1.54,5.9,5.87,5.87,0,0,0,1.67,4.36q1.6,1.5,4.42.32a13.18,13.18,0,0,0,4.46-3.37l.74,1.85a15.08,15.08,0,0,1-5.14,3.77q-3.68,1.53-5.92-.35T209,99.33a13.9,13.9,0,0,1,2.12-7.66,11.73,11.73,0,0,1,5.46-5Q219.67,85.39,221.81,86.9Zm-4.36,10.73a4.94,4.94,0,0,0,.48-2.23,1.61,1.61,0,0,0-.46-1.27.89.89,0,0,0-1-.15,2.11,2.11,0,0,0-1,1.17,4.75,4.75,0,0,0-.38,2.08,2.92,2.92,0,0,0,.35,1.48.6.6,0,0,0,.81.31,2.57,2.57,0,0,0,1.23-1.39" fill="#aa3529"></path><rect x="211.03" y="51" width="2.34" height="48.53" rx="1.17" ry="1.17" transform="translate(185.37 -148.28) rotate(63.63)" fill="#aa3529"></rect><path d="M234.46,65.53s8.55,13.61,8.87,14.66-23.2-7.55-23.2-7.55" fill="#aa3529"></path><path d="M171,78.37c-4,3-9.35,1.65-13.91,1a27,27,0,0,1-5.6-1.11,14.94,14.94,0,0,0,4.87-2.43,15.85,15.85,0,0,0,8.1,1.81,11.44,11.44,0,0,0,5.67,0,.5.5,0,0,0-.27-1,10.37,10.37,0,0,1-3.33.3.53.53,0,0,0-.57-.45.45.45,0,0,0-.26-.07,12.85,12.85,0,0,1-6.5-1.5,8.66,8.66,0,0,0,4.23-2.13c.47-.44-.24-1.14-.71-.71a7.7,7.7,0,0,1-4.38,2,15.48,15.48,0,0,0,2.74-4.2c.26-.58-.6-1.09-.86-.5a14.68,14.68,0,0,1-2.94,4.33A12.77,12.77,0,0,1,153,67.37c-.19-.61-1.15-.35-1,.27a13.86,13.86,0,0,0,4.33,6.53h-.93a40.22,40.22,0,0,1-7.68-6.45c-.45-.46-1.16.25-.71.71a45.49,45.49,0,0,0,6.47,5.67c-3.18-.24-6.3-1.26-7.67-4.42-.26-.59-1.12-.08-.86.5,1.46,3.37,4.88,4.64,8.34,4.9.64,0,1.28.08,1.91.1l.2.12a13.92,13.92,0,0,1-5.32,2.31c-2-1.07-3.9-2.39-5.82-3.58-.55-.34-1.05.53-.5.86,1.51.93,3,2,4.6,2.95a14.73,14.73,0,0,1-4.19-.27c-.63-.13-.9.83-.27,1a15.7,15.7,0,0,0,5.94.11c.44.22.89.43,1.35.61,2.31.89,5,1,7.43,1.33,4.36.62,9.11,1.42,12.9-1.35C172.05,78.86,171.55,78,171,78.37Z" fill="#fff"></path><path d="M181.85,120.92a77.2,77.2,0,0,1-8.21,1.42q1.39-2.07,2.68-4.19a28.57,28.57,0,0,0,5-3.3c.5-.41-.21-1.11-.71-.71a27.16,27.16,0,0,1-3.34,2.33q2.39-4.12,4.42-8.44c.27-.58-.59-1.09-.86-.5a107.13,107.13,0,0,1-5.26,9.88,27.06,27.06,0,0,1-16.74,2.47c-.63-.11-.9.85-.27,1a28.15,28.15,0,0,0,16.05-1.9c-.75,1.21-1.54,2.39-2.34,3.57-2.93.35-5.86.65-8.73,1.05-.63.09-.36,1.05.27,1,2.53-.36,5.12-.63,7.7-.93-.74,1.06-1.48,2.11-2.26,3.14-.39.51.48,1,.86.5.94-1.25,1.85-2.52,2.74-3.81a82.4,82.4,0,0,0,9.22-1.55C182.74,121.73,182.48,120.77,181.85,120.92Z" fill="#fff"></path><path d="M245.51,165.89a54.25,54.25,0,0,0,7.22-3.14,20.74,20.74,0,0,0,5.45-3.57c0-.06,0-.12-.06-.18-4.81,1.83-10.3-.85-15.32-.62-3.32.15-7,1-9.61,3.15a17.8,17.8,0,0,0-2.52,2.8C235.38,166.63,240.16,167.6,245.51,165.89Z" fill="#f9b246"></path><path d="M98.16,153.62a33.78,33.78,0,0,0-.94,4.81,12.91,12.91,0,0,0-.09,4.06l.11,0c.76-3.11,4.08-5,5.73-7.64a10.14,10.14,0,0,0,1.78-6,11.08,11.08,0,0,0-.54-2.28A11.85,11.85,0,0,0,98.16,153.62Z" fill="#e98669"></path><path d="M203.78,233.81a47.06,47.06,0,0,0-5.28,4.34,18,18,0,0,0-3.69,4.28l.09.14c3.58-2.67,8.8-1.74,12.93-3.13,2.74-.92,5.59-2.48,7.26-4.92a15.44,15.44,0,0,0,1.44-2.93C212.06,230.77,207.84,231.11,203.78,233.81Z" fill="#7dc156"></path><path d="M110.15,192.6c-1.5-2.54-3.2-5.08-6.13-6.05-3.71-1.24-7.36.57-10.6,2.28.45,2,2.41,3.61,3.86,4.8a23.37,23.37,0,0,0,6.71,4,30.73,30.73,0,0,0,12.14,1.8C113.55,198.16,111.57,195,110.15,192.6Z" fill="#c95c43"></path><path d="M292.46,198.28c1.17-.2,2.12-.17,2.57.36-.82,8.1,5,4.14,7.56,6.19l2.2-.92q6.66-6.67,13.39-13.25c-1.54-1.11-3-2.29-4.52-3.45A141.84,141.84,0,0,0,292.46,198.28Z" opacity="0.48" fill="url(#linear-gradient-2)"></path><path d="M318.8,190.74V150.82h-8.69v40.27C313.12,192,316.28,192.1,318.8,190.74Z" fill="#a83f1e"></path><path d="M315.34,150.93v40.89a8.75,8.75,0,0,0,3.46-1V150.93Z" fill="#7f2b14"></path><path d="M326.55,154.55c5.41-.26,12.33-2.2,10.3-8.23-1.2-3.56-4.88-6.7-7.24-9.52s-1.83-4.71-4.46-7.48c2.24.09,5.49-.33,6-2.55.48-1.94-10-13.86-14.49-18.69a2.89,2.89,0,0,0-3.92-.29c-5.38,4.29-19.13,15.69-17.21,19,1.16,2,3.5,2.67,5.59,2.85-4.95,5-10.58,11.16-11.15,17.76-.5,5.73,5.36,6.49,10.82,6.2-3.77,4.58-14,17.64-11.67,21.61,1.23,2.09,5.2,2.78,7.55,3.25a75,75,0,0,0,15.48,1.49,47.69,47.69,0,0,0,15.4-2.32,21.56,21.56,0,0,0,7.51-4.13c2.4-2.26,1.06-4.66-.5-6.93C331.88,162.59,329.22,158.57,326.55,154.55Z" fill="#77c457"></path><path d="M325.15,129.33s-6.58-.43-11.17-.31L337.2,148.1s.62-2.22-3.48-6.76A93.41,93.41,0,0,1,325.15,129.33Z" fill="#0d5b23"></path><path d="M326.55,154.55H313l22.05,18.94a3.36,3.36,0,0,0,1-4.36C334.6,166.56,326.55,154.55,326.55,154.55Z" fill="#0d5b23"></path><path d="M48.16,188.79c.72-.12,1.3-.1,1.58.22-.5,5,3.07,2.54,4.64,3.79l1.35-.56q4.08-4.09,8.21-8.13c-.94-.68-1.86-1.4-2.77-2.12A87,87,0,0,0,48.16,188.79Z" opacity="0.48" fill="url(#linear-gradient-3)"></path><path d="M64.31,184.16V159.68H59v24.7A7.13,7.13,0,0,0,64.31,184.16Z" fill="#a83f1e"></path><path d="M62.19,159.75v25.07a5.37,5.37,0,0,0,2.12-.59V159.75Z" fill="#7f2b14"></path><path d="M69.07,162c3.31-.16,7.56-1.35,6.32-5-.73-2.18-3-4.11-4.44-5.84s-1.12-2.89-2.74-4.58c1.37.06,3.37-.2,3.7-1.56.3-1.19-6.11-8.5-8.88-11.46a1.77,1.77,0,0,0-2.4-.18c-3.3,2.63-11.73,9.62-10.56,11.64a4.2,4.2,0,0,0,3.43,1.75c-3,3-6.49,6.84-6.84,10.89-.3,3.51,3.29,4,6.63,3.8-2.31,2.81-8.59,10.82-7.16,13.25.76,1.28,3.19,1.71,4.63,2a46,46,0,0,0,9.49.92,29.25,29.25,0,0,0,9.44-1.42,13.22,13.22,0,0,0,4.6-2.53c1.47-1.39.65-2.86-.31-4.25C72.33,166.9,70.7,164.43,69.07,162Z" fill="#77c457"></path><path d="M68.21,146.5s-4-.26-6.85-.19L75.6,158s.38-1.36-2.14-4.14A57.28,57.28,0,0,1,68.21,146.5Z" fill="#0d5b23"></path><path d="M69.07,162H60.79l13.52,11.62a2.06,2.06,0,0,0,.59-2.67C74,169.33,69.07,162,69.07,162Z" fill="#0d5b23"></path></svg>